<svg width="14" height="14" viewBox="0 0 14 14" fill="none" xmlns="http://www.w3.org/2000/svg">
<path d="M7 10.5V9.625C7.33829 9.59577 7.65541 9.4481 7.8955 9.208C8.1356 8.96791 8.28327 8.65079 8.3125 8.3125H9.1875C9.15922 8.88352 8.91967 9.42364 8.5154 9.8279C8.11114 10.2322 7.57102 10.4717 7 10.5Z" fill="#2F4859"/>
<path d="M7 12.25C5.9561 12.2488 4.95532 11.8335 4.21717 11.0954C3.47902 10.3572 3.06377 9.35643 3.0625 8.31253C3.08605 7.54504 3.3115 6.79731 3.71613 6.14472L6.62944 1.50372C6.67152 1.44466 6.7271 1.39652 6.79156 1.3633C6.85602 1.33008 6.92748 1.31274 7 1.31274C7.07252 1.31274 7.14398 1.33008 7.20844 1.3633C7.2729 1.39652 7.32848 1.44466 7.37056 1.50372L10.2712 6.12197C10.6826 6.78061 10.9125 7.53636 10.9375 8.31253C10.9362 9.35643 10.521 10.3572 9.78283 11.0954C9.04468 11.8335 8.0439 12.2488 7 12.25ZM7 2.55853L4.47038 6.58703C4.14444 7.10548 3.96066 7.70058 3.9375 8.31253C3.9375 9.12476 4.26016 9.90372 4.83449 10.478C5.40882 11.0524 6.18777 11.375 7 11.375C7.81223 11.375 8.59118 11.0524 9.16551 10.478C9.73984 9.90372 10.0625 9.12476 10.0625 8.31253C10.0375 7.69202 9.84919 7.0891 9.5165 6.56472L7 2.55853Z" fill="#2F4859"/>
</svg>
