<svg width="14" height="14" viewBox="0 0 14 14" fill="none" xmlns="http://www.w3.org/2000/svg">
<path d="M7 7.5835C7.9665 7.5835 8.75 6.79999 8.75 5.8335C8.75 4.867 7.9665 4.0835 7 4.0835C6.0335 4.0835 5.25 4.867 5.25 5.8335C5.25 6.79999 6.0335 7.5835 7 7.5835Z" stroke="#2F4859" stroke-linecap="round" stroke-linejoin="round"/>
<path d="M6.99998 1.16675C5.7623 1.16675 4.57532 1.65841 3.70015 2.53358C2.82498 3.40875 2.33331 4.59574 2.33331 5.83342C2.33331 6.93708 2.56781 7.65925 3.20831 8.45842L6.99998 12.8334L10.7916 8.45842C11.4321 7.65925 11.6666 6.93708 11.6666 5.83342C11.6666 4.59574 11.175 3.40875 10.2998 2.53358C9.42464 1.65841 8.23766 1.16675 6.99998 1.16675V1.16675Z" stroke="#2F4859" stroke-linecap="round" stroke-linejoin="round"/>
</svg>
