<svg width="14" height="14" viewBox="0 0 14 14" fill="none" xmlns="http://www.w3.org/2000/svg">
<path d="M7.00004 4.5498C7.09287 4.5498 7.18189 4.58668 7.24753 4.65232C7.31316 4.71796 7.35004 4.80698 7.35004 4.8998V8.44391C7.67997 8.52909 7.96751 8.73169 8.15875 9.01371C8.34999 9.29573 8.43182 9.63782 8.38888 9.97586C8.34594 10.3139 8.1812 10.6247 7.92552 10.8499C7.66984 11.0752 7.34079 11.1995 7.00004 11.1995C6.65929 11.1995 6.33024 11.0752 6.07456 10.8499C5.81888 10.6247 5.65413 10.3139 5.6112 9.97586C5.56826 9.63782 5.65008 9.29573 5.84133 9.01371C6.03257 8.73169 6.32011 8.52909 6.65004 8.44391V4.8998C6.65004 4.80698 6.68691 4.71796 6.75255 4.65232C6.81819 4.58668 6.90721 4.5498 7.00004 4.5498Z" fill="#2F4859"/>
<path d="M7.00001 1.3999C6.44306 1.3999 5.90892 1.62115 5.51509 2.01498C5.12126 2.4088 4.90001 2.94295 4.90001 3.4999V7.9477C4.5436 8.35184 4.31136 8.85024 4.23118 9.3831C4.151 9.91595 4.22628 10.4606 4.44799 10.9518C4.66969 11.4429 5.0284 11.8596 5.48108 12.1519C5.93375 12.4442 6.46116 12.5997 7.00001 12.5997C7.53887 12.5997 8.06627 12.4442 8.51895 12.1519C8.97162 11.8596 9.33034 11.4429 9.55204 10.9518C9.77374 10.4606 9.84902 9.91595 9.76884 9.3831C9.68866 8.85024 9.45643 8.35184 9.10001 7.9477V3.4999C9.10001 2.94295 8.87876 2.4088 8.48494 2.01498C8.09111 1.62115 7.55697 1.3999 7.00001 1.3999ZM7.00001 2.0999C7.37132 2.0999 7.72741 2.2474 7.98996 2.50995C8.25251 2.7725 8.40001 3.1286 8.40001 3.4999V8.2284L8.50011 8.3299C8.78949 8.62528 8.98521 8.99952 9.06276 9.40568C9.1403 9.81185 9.09621 10.2319 8.93601 10.6131C8.77581 10.9943 8.50663 11.3197 8.16222 11.5486C7.81782 11.7774 7.41352 11.8995 7.00001 11.8995C6.58651 11.8995 6.18221 11.7774 5.8378 11.5486C5.4934 11.3197 5.22422 10.9943 5.06402 10.6131C4.90382 10.2319 4.85973 9.81185 4.93727 9.40568C5.01481 8.99952 5.21054 8.62528 5.49991 8.3299L5.60001 8.2284V3.4999C5.60001 3.1286 5.74751 2.7725 6.01006 2.50995C6.27262 2.2474 6.62871 2.0999 7.00001 2.0999Z" fill="#2F4859"/>
</svg>
